<svg xmlns="http://www.w3.org/2000/svg" width="980" height="180" viewBox="0 0 980 180" role="img" aria-label="Macro Butler">
  <defs>
    <linearGradient id="g" x1="0" y1="0" x2="1" y2="1">
      <stop offset="0" stop-color="#00c2ff"/>
      <stop offset="0.55" stop-color="#2f6bff"/>
      <stop offset="1" stop-color="#8a35ff"/>
    </linearGradient>
    <linearGradient id="txt" x1="0" y1="0" x2="1" y2="0">
      <stop offset="0" stop-color="#f8fbff"/>
      <stop offset="0.45" stop-color="#f8fbff"/>
      <stop offset="0.55" stop-color="#00c2ff"/>
      <stop offset="1" stop-color="#8a35ff"/>
    </linearGradient>
    <filter id="glow"><feGaussianBlur stdDeviation="4" result="b"/><feMerge><feMergeNode in="b"/><feMergeNode in="SourceGraphic"/></feMerge></filter>
  </defs>
  <rect x="3" y="3" width="974" height="174" rx="58" fill="#071225" stroke="url(#g)" stroke-width="4"/>
  <g transform="translate(42,24)" filter="url(#glow)">
    <circle cx="66" cy="66" r="58" fill="#071225" stroke="url(#g)" stroke-width="6"/>
    <path d="M30 82h72" stroke="#f8fbff" stroke-width="7" stroke-linecap="round"/>
    <path d="M42 78c3-24 20-39 42-39s39 15 42 39" fill="none" stroke="#f8fbff" stroke-width="7" stroke-linecap="round"/>
    <path d="M84 34v-9" stroke="#f8fbff" stroke-width="7" stroke-linecap="round"/>
    <circle cx="84" cy="22" r="5" fill="#f8fbff"/>
    <path d="M47 105l31-18M43 102c8 18 28 22 48 10" stroke="#f8fbff" stroke-width="7" stroke-linecap="round"/>
    <path d="M82 108l-15 10v-20l15 10Zm5 0 15-10v20l-15-10Z" fill="url(#g)"/>
  </g>
  <line x1="184" y1="32" x2="184" y2="148" stroke="#94a3b8" stroke-width="2"/>
  <g font-family="Arial Black, Arial, sans-serif" font-weight="900">
    <text x="220" y="80" font-size="58" fill="url(#txt)" letter-spacing="1.2">MACRO BUTLER</text>
    <text x="224" y="121" font-size="24" fill="#a9b7cc" font-family="Arial, sans-serif" font-weight="700" letter-spacing="2">PLAN. TRACK. ACHIEVE.</text>
  </g>
  <g transform="translate(720,35)" font-family="Arial, sans-serif" font-weight="800">
    <g fill="none" stroke="#16bfff" stroke-width="4" stroke-linecap="round"><path d="M0 26c8-14 23-20 38-20s30 6 38 20"/><path d="M0 29h76"/><path d="M38 6V0"/></g>
    <text x="38" y="68" text-anchor="middle" fill="#f8fbff" font-size="18">CAL</text>
    <g transform="translate(96,0)" fill="none" stroke="#9d4edd" stroke-width="4" stroke-linecap="round"><path d="M0 26c8-14 23-20 38-20s30 6 38 20"/><path d="M0 29h76"/><path d="M38 6V0"/></g>
    <text x="134" y="68" text-anchor="middle" fill="#f8fbff" font-size="18">C</text>
    <g transform="translate(184,0)" fill="none" stroke="#22c55e" stroke-width="4" stroke-linecap="round"><path d="M0 26c8-14 23-20 38-20s30 6 38 20"/><path d="M0 29h76"/><path d="M38 6V0"/></g>
    <text x="222" y="68" text-anchor="middle" fill="#f8fbff" font-size="18">P</text>
  </g>
</svg>